<mxfile host="app.diagrams.net" modified="2022-09-01T07:41:16.197Z" agent="5.0 (Macintosh; Intel Mac OS X 10_15_7) AppleWebKit/537.36 (KHTML, like Gecko) Chrome/104.0.0.0 Safari/537.36" etag="BsUJMq83lMcbjRSYHwmy" version="20.2.6" type="github">
  <diagram id="psnaMa_-De6Tm_ke2Dg3" name="第 1 页">
    <mxGraphModel dx="1186" dy="653" grid="1" gridSize="10" guides="1" tooltips="1" connect="1" arrows="1" fold="1" page="1" pageScale="1" pageWidth="827" pageHeight="1169" math="0" shadow="0">
      <root>
        <mxCell id="0" />
        <mxCell id="1" parent="0" />
        <mxCell id="itG_-COtN9kHuqlSStco-4" value="" style="edgeStyle=orthogonalEdgeStyle;rounded=0;orthogonalLoop=1;jettySize=auto;html=1;" edge="1" parent="1" source="itG_-COtN9kHuqlSStco-1" target="itG_-COtN9kHuqlSStco-3">
          <mxGeometry relative="1" as="geometry" />
        </mxCell>
        <mxCell id="itG_-COtN9kHuqlSStco-1" value="Handy 发起模式切换" style="rounded=1;whiteSpace=wrap;html=1;" vertex="1" parent="1">
          <mxGeometry x="70" y="60" width="120" height="60" as="geometry" />
        </mxCell>
        <mxCell id="itG_-COtN9kHuqlSStco-6" value="" style="edgeStyle=orthogonalEdgeStyle;rounded=0;orthogonalLoop=1;jettySize=auto;html=1;" edge="1" parent="1" source="itG_-COtN9kHuqlSStco-3" target="itG_-COtN9kHuqlSStco-5">
          <mxGeometry relative="1" as="geometry" />
        </mxCell>
        <mxCell id="itG_-COtN9kHuqlSStco-3" value="Screen 启动/关闭 PlayService" style="whiteSpace=wrap;html=1;rounded=1;" vertex="1" parent="1">
          <mxGeometry x="70" y="200" width="120" height="60" as="geometry" />
        </mxCell>
        <mxCell id="itG_-COtN9kHuqlSStco-5" value="SDK 记录当前模式" style="whiteSpace=wrap;html=1;rounded=1;" vertex="1" parent="1">
          <mxGeometry x="70" y="340" width="120" height="60" as="geometry" />
        </mxCell>
        <mxCell id="itG_-COtN9kHuqlSStco-9" value="" style="edgeStyle=orthogonalEdgeStyle;rounded=0;orthogonalLoop=1;jettySize=auto;html=1;" edge="1" parent="1" source="itG_-COtN9kHuqlSStco-7" target="itG_-COtN9kHuqlSStco-8">
          <mxGeometry relative="1" as="geometry" />
        </mxCell>
        <mxCell id="itG_-COtN9kHuqlSStco-7" value="信号源切换" style="rounded=1;whiteSpace=wrap;html=1;" vertex="1" parent="1">
          <mxGeometry x="410" y="60" width="120" height="60" as="geometry" />
        </mxCell>
        <mxCell id="itG_-COtN9kHuqlSStco-11" value="" style="edgeStyle=orthogonalEdgeStyle;rounded=0;orthogonalLoop=1;jettySize=auto;html=1;" edge="1" parent="1" source="itG_-COtN9kHuqlSStco-8" target="itG_-COtN9kHuqlSStco-10">
          <mxGeometry relative="1" as="geometry" />
        </mxCell>
        <mxCell id="itG_-COtN9kHuqlSStco-12" value="是" style="edgeLabel;html=1;align=center;verticalAlign=middle;resizable=0;points=[];" vertex="1" connectable="0" parent="itG_-COtN9kHuqlSStco-11">
          <mxGeometry x="0.1167" y="1" relative="1" as="geometry">
            <mxPoint as="offset" />
          </mxGeometry>
        </mxCell>
        <mxCell id="itG_-COtN9kHuqlSStco-14" value="" style="edgeStyle=orthogonalEdgeStyle;rounded=0;orthogonalLoop=1;jettySize=auto;html=1;" edge="1" parent="1" source="itG_-COtN9kHuqlSStco-8" target="itG_-COtN9kHuqlSStco-13">
          <mxGeometry relative="1" as="geometry" />
        </mxCell>
        <mxCell id="itG_-COtN9kHuqlSStco-8" value="是否播放模式" style="rhombus;whiteSpace=wrap;html=1;rounded=1;" vertex="1" parent="1">
          <mxGeometry x="430" y="190" width="80" height="80" as="geometry" />
        </mxCell>
        <mxCell id="itG_-COtN9kHuqlSStco-10" value="屏蔽事件" style="whiteSpace=wrap;html=1;rounded=1;" vertex="1" parent="1">
          <mxGeometry x="300" y="340" width="120" height="60" as="geometry" />
        </mxCell>
        <mxCell id="itG_-COtN9kHuqlSStco-13" value="分发事件" style="whiteSpace=wrap;html=1;rounded=1;" vertex="1" parent="1">
          <mxGeometry x="530" y="340" width="120" height="60" as="geometry" />
        </mxCell>
      </root>
    </mxGraphModel>
  </diagram>
</mxfile>
